<svg xmlns="http://www.w3.org/2000/svg" viewBox="0 0 320 520">
<defs><linearGradient id="g" x1="0" y1="0" x2="1" y2="1"><stop stop-color="#ffd766"/><stop offset=".48" stop-color="#47320b"/><stop offset="1" stop-color="#070602"/></linearGradient><radialGradient id="s" cx=".5" cy=".23" r=".36"><stop stop-color="#fffbe0"/><stop offset=".38" stop-color="#ffd45f"/><stop offset="1" stop-color="#442b05" stop-opacity="0"/></radialGradient></defs>
<rect width="320" height="520" fill="url(#g)"/><circle cx="160" cy="118" r="90" fill="url(#s)"/><path d="M0 520V286c42 35 67 33 100 0 30-31 44-84 60-146 16 62 30 115 60 146 33 33 58 35 100 0v234z" fill="#100b05" opacity=".9"/><path d="M122 382c-14-54 14-89 38-154 24 65 52 100 38 154-9 35-67 35-76 0z" fill="#ffe28a" opacity=".82"/><path d="M160 228v188" stroke="#fff7df" stroke-width="7"/><path d="M86 420c42 21 108 21 148 0" stroke="#2b1604" stroke-width="12" opacity=".55"/></svg>
